<?xml version="1.0" encoding="UTF-8" standalone="no"?>
<!DOCTYPE svg PUBLIC "-//W3C//DTD SVG 20010904//EN"
              "http://www.w3.org/TR/2001/REC-SVG-20010904/DTD/svg10.dtd">

<svg xmlns="http://www.w3.org/2000/svg"
     width="6.4in" height="3.6in"
     viewBox="0 0 1920 1080">
  <path id="plane-path"
        fill="none" stroke="black" stroke-width="1"
        d="M 573.00,225.00
           C 535.00,263.00 505.00,309.00 497.00,362.00
           C 490.00,438.00 525.00,458.00 552.00,478.00
           C 609.00,513.00 673.00,495.00 701.00,481.00
           C 734.00,458.00 750.00,387.00 754.00,355.00
           C 763.00,252.00 858.00,262.00 889.00,264.00
           C 958.00,269.00 1010.00,295.00 1050.00,327.00
           C 1134.00,401.00 1081.00,492.00 1121.00,561.00
           C 1200.00,659.00 1313.00,669.00 1384.00,614.00
           C 1464.00,549.00 1463.00,466.00 1442.00,425.00
           C 1412.00,371.00 1379.00,301.00 1298.00,315.00
           C 1188.00,338.00 1218.00,359.00 1157.00,405.00
           C 1097.00,453.00 1047.00,482.00 968.00,478.00
           C 882.00,472.00 878.00,395.00 841.00,359.00
           C 816.00,335.00 698.00,221.00 697.00,221.00
           C 696.00,221.00 593.00,135.00 477.00,213.00
           C 401.00,269.00 384.00,330.00 379.00,397.00
           C 377.00,455.00 404.00,527.00 435.00,554.00
           C 471.00,584.00 537.00,586.00 572.00,586.00
           C 613.00,587.00 687.00,585.00 730.00,587.00
           C 797.00,589.00 863.00,611.00 895.00,631.00
           C 931.00,669.00 986.00,708.00 1007.00,714.00
           C 1061.00,742.00 1195.00,783.00 1246.00,758.00
           C 1325.00,720.00 1414.00,602.00 1303.00,549.00
           C 1229.00,492.00 1231.00,404.00 1190.00,358.00
           C 1150.00,314.00 1018.00,282.00 967.00,244.00
           C 884.00,195.00 800.00,161.00 724.00,161.00
           C 649.00,163.00 613.00,184.00 573.00,225.00 Z" />
</svg>
